<?xml version="1.0" encoding="utf-8"?>
<!-- Generator: Adobe Illustrator 27.1.1, SVG Export Plug-In . SVG Version: 6.00 Build 0)  -->
<svg version="1.1" id="Camada_1" xmlns="http://www.w3.org/2000/svg" xmlns:xlink="http://www.w3.org/1999/xlink" x="0px" y="0px"
	 viewBox="0 0 100 100" style="enable-background:new 0 0 100 100;" xml:space="preserve">
<style type="text/css">
	.st0{fill:#BF228B;}
	.st1{fill:#2662AA;}
	.st2{fill:#E23A07;}
	.st3{fill:#990824;}
	.st4{fill:#FFFFFF;}
	.st5{fill:#5C2504;}
</style>
<g>
	<path class="st4" d="M0.41,47.4V30.66c0-0.28,0.23-0.51,0.51-0.51H8.9c4.19,0,6.93,1.88,6.93,5.38c0,0.99-0.2,1.83-0.61,2.56
		c1.34,0.91,2.11,2.31,2.11,4.16c0,3.5-2.74,5.66-6.93,5.66H0.91C0.63,47.91,0.41,47.68,0.41,47.4L0.41,47.4z M9.28,36.85
		c1.29,0,1.72-0.46,1.72-1.07c0-0.61-0.43-1.07-1.72-1.07H5.23v2.13L9.28,36.85L9.28,36.85z M10.78,43.34
		c1.29,0,1.72-0.61,1.72-1.22c0-0.61-0.43-1.22-1.72-1.22H5.23v2.44L10.78,43.34L10.78,43.34z"/>
	<path class="st4" d="M27.77,42.48H24.1v5.17c0,0.15-0.1,0.25-0.25,0.25h-4.31c-0.15,0-0.25-0.1-0.25-0.25V30.41
		c0-0.15,0.1-0.25,0.25-0.25h9c4.19,0,6.93,2.66,6.93,6.16c0,1.75-0.68,3.27-1.88,4.39c0.79,1.34,1.12,2.74,2.05,2.84
		c0.41,0.05,0.51,0.15,0.51,0.53v3.32c0,0.66-0.33,0.74-0.76,0.74C29.04,48.14,30.87,42.48,27.77,42.48L27.77,42.48z M28.53,37.92
		c1.27,0,2.11-0.48,2.11-1.6c0-1.12-0.84-1.6-2.11-1.6H24.1v3.2H28.53z"/>
	<path class="st4" d="M37.26,47.1l6.42-16.64c0.08-0.2,0.28-0.3,0.46-0.3h6.95c0.18,0,0.38,0.1,0.46,0.3l6.42,16.64
		c0.15,0.43-0.13,0.81-0.56,0.81h-4.13c-0.18,0-0.38-0.1-0.46-0.3l-1.24-3.2h-7.91l-1.24,3.2c-0.08,0.2-0.28,0.3-0.46,0.3h-4.13
		C37.39,47.91,37.11,47.5,37.26,47.1z M49.77,39.84l-2.16-5.68l-2.16,5.68H49.77z"/>
	<path class="st4" d="M59.71,46.97c-0.3-0.15-0.41-0.3-0.41-0.74v-3.68c0-0.68,0.2-0.79,0.68-0.46c1.4,0.96,4.06,1.65,6.98,1.65
		c2.92,0,4.31-0.38,4.31-1.42c0-1.12-2.33-0.99-5.45-1.17c-3.3-0.18-7-1.01-7-5.73c0-3.6,3.32-5.68,8.4-5.68
		c3.53,0,5.73,0.56,7.2,1.29c0.3,0.15,0.41,0.3,0.41,0.74v3.68c0,0.68-0.2,0.79-0.68,0.46c-1.4-0.96-3.55-1.6-6.93-1.6
		c-1.88,0-3.58,0.33-3.58,1.37c0,0.91,1.9,0.94,4.16,1.07c3.96,0.23,8.29,0.81,8.29,5.83c0,3.6-3.42,5.73-9.13,5.73
		C63.9,48.32,61.18,47.71,59.71,46.97L59.71,46.97z"/>
	<path class="st4" d="M78.5,47.4V30.66c0-0.28,0.23-0.51,0.51-0.51h3.81c0.28,0,0.51,0.23,0.51,0.51V47.4
		c0,0.28-0.23,0.51-0.51,0.51h-3.81C78.73,47.91,78.5,47.68,78.5,47.4z"/>
	<path class="st4" d="M86.18,47.4V30.66c0-0.28,0.23-0.51,0.51-0.51h3.81c0.28,0,0.51,0.23,0.51,0.51v12.68h8.5
		c0.28,0,0.51,0.23,0.51,0.51v3.55c0,0.28-0.23,0.51-0.51,0.51H86.68C86.4,47.91,86.18,47.68,86.18,47.4L86.18,47.4z"/>
	<path class="st4" d="M0,60.94c0-5.66,4.16-9.26,11.02-9.26c1.59,0,4.02,0.28,5.94,1.12c0.19,0.08,0.35,0.23,0.35,0.43v3.93
		c0,0.3-0.32,0.46-0.62,0.3c-1.67-0.86-3.73-1.22-5.67-1.22c-3.78,0-5.89,1.6-5.89,4.69c0,3.09,2.11,4.74,5.89,4.74
		c1.94,0,3.89-0.48,5.67-1.24c0.3-0.13,0.62,0.03,0.62,0.33l0.05,3.96c0,0.18-0.11,0.36-0.3,0.43c-2.24,0.86-4.46,1.09-6.05,1.09
		C4.16,70.25,0,66.55,0,60.94L0,60.94z"/>
	<path class="st4" d="M18.53,69.03l6.83-16.64c0.08-0.2,0.3-0.3,0.49-0.3h7.4c0.19,0,0.41,0.1,0.49,0.3l6.83,16.64
		c0.16,0.43-0.13,0.81-0.59,0.81h-4.4c-0.19,0-0.41-0.1-0.49-0.3l-1.32-3.2h-8.43l-1.32,3.2c-0.08,0.2-0.3,0.3-0.49,0.3h-4.4
		C18.67,69.85,18.37,69.44,18.53,69.03L18.53,69.03z M31.85,61.78l-2.3-5.68l-2.3,5.68H31.85L31.85,61.78z"/>
	<path class="st4" d="M40.36,60.94c0-5.66,4.16-9.26,11.02-9.26c1.59,0,4.02,0.28,5.94,1.12c0.19,0.08,0.35,0.23,0.35,0.43v3.93
		c0,0.3-0.32,0.46-0.62,0.3c-1.67-0.86-3.73-1.22-5.67-1.22c-3.78,0-5.89,1.6-5.89,4.69c0,3.09,2.11,4.74,5.89,4.74
		c1.94,0,3.89-0.48,5.67-1.24c0.3-0.13,0.62,0.03,0.62,0.33l0.05,3.96c0,0.18-0.11,0.36-0.3,0.43c-2.24,0.86-4.46,1.09-6.05,1.09
		C44.52,70.25,40.36,66.55,40.36,60.94L40.36,60.94z"/>
	<path class="st4" d="M58.89,69.03l6.83-16.64c0.08-0.2,0.3-0.3,0.49-0.3h7.4c0.19,0,0.41,0.1,0.49,0.3l6.83,16.64
		c0.16,0.43-0.14,0.81-0.59,0.81h-4.4c-0.19,0-0.41-0.1-0.49-0.3l-1.32-3.2h-8.43l-1.32,3.2c-0.08,0.2-0.3,0.3-0.49,0.3h-4.4
		C59.02,69.85,58.73,69.44,58.89,69.03L58.89,69.03z M72.2,61.78l-2.3-5.68l-2.3,5.68H72.2L72.2,61.78z"/>
	<path class="st4" d="M81.23,60.94V52.6c0-0.28,0.24-0.51,0.54-0.51h4.05c0.3,0,0.54,0.23,0.54,0.51v8.35c0,3.3,1.46,5,4.27,5
		c2.81,0,4.24-1.7,4.24-5V52.6c0-0.28,0.24-0.51,0.54-0.51h4.05c0.3,0,0.54,0.23,0.54,0.51v8.35c0,6.14-3.19,9.31-9.37,9.31
		C84.44,70.25,81.23,67.08,81.23,60.94L81.23,60.94z"/>
</g>
</svg>
