<?xml version="1.0" encoding="utf-8"?>
<!-- Generator: Adobe Illustrator 27.1.1, SVG Export Plug-In . SVG Version: 6.00 Build 0)  -->
<svg version="1.1" id="Camada_1" xmlns="http://www.w3.org/2000/svg" xmlns:xlink="http://www.w3.org/1999/xlink" x="0px" y="0px"
	 viewBox="0 0 100 100" style="enable-background:new 0 0 100 100;" xml:space="preserve">
<style type="text/css">
	.st0{fill:#BF228B;}
	.st1{fill:#2662AA;}
	.st2{fill:#E23A07;}
	.st3{fill:#990824;}
	.st4{fill:#FFFFFF;}
	.st5{fill:#5C2504;}
</style>
<path class="st2" d="M85,100H15c-8.28,0-15-6.72-15-15V15C0,6.72,6.72,0,15,0h70c8.28,0,15,6.72,15,15v70
	C100,93.28,93.28,100,85,100z"/>
<g>
	<path class="st4" d="M12.8,48.05V35.5c0-0.21,0.17-0.38,0.38-0.38h5.99c3.14,0,5.19,1.41,5.19,4.03c0,0.74-0.15,1.37-0.46,1.92
		c1.01,0.68,1.58,1.73,1.58,3.12c0,2.63-2.05,4.24-5.19,4.24h-7.12C12.98,48.43,12.8,48.26,12.8,48.05L12.8,48.05z M19.46,40.14
		c0.97,0,1.29-0.34,1.29-0.8s-0.32-0.8-1.29-0.8h-3.04v1.6L19.46,40.14L19.46,40.14z M20.59,45.01c0.97,0,1.29-0.46,1.29-0.91
		s-0.32-0.91-1.29-0.91h-4.17v1.83L20.59,45.01L20.59,45.01z"/>
	<path class="st4" d="M33.33,44.36h-2.76v3.88c0,0.11-0.08,0.19-0.19,0.19h-3.23c-0.11,0-0.19-0.08-0.19-0.19V35.31
		c0-0.11,0.08-0.19,0.19-0.19h6.75c3.14,0,5.19,2,5.19,4.62c0,1.31-0.51,2.45-1.41,3.29c0.59,1.01,0.84,2.05,1.54,2.13
		c0.3,0.04,0.38,0.11,0.38,0.4v2.49c0,0.49-0.25,0.55-0.57,0.55C34.28,48.6,35.65,44.36,33.33,44.36L33.33,44.36z M33.9,40.94
		c0.95,0,1.58-0.36,1.58-1.2c0-0.84-0.63-1.2-1.58-1.2h-3.33v2.4H33.9z"/>
	<path class="st4" d="M40.45,47.82l4.81-12.48c0.06-0.15,0.21-0.23,0.34-0.23h5.21c0.13,0,0.29,0.08,0.34,0.23l4.81,12.48
		c0.11,0.32-0.1,0.61-0.42,0.61h-3.1c-0.13,0-0.29-0.08-0.34-0.23l-0.93-2.4h-5.94l-0.93,2.4c-0.06,0.15-0.21,0.23-0.34,0.23h-3.1
		C40.54,48.43,40.33,48.13,40.45,47.82z M49.83,42.38l-1.62-4.26l-1.62,4.26H49.83z"/>
	<path class="st4" d="M57.28,47.73c-0.23-0.11-0.3-0.23-0.3-0.55v-2.76c0-0.51,0.15-0.59,0.51-0.34c1.05,0.72,3.04,1.24,5.23,1.24
		c2.19,0,3.23-0.29,3.23-1.07c0-0.84-1.75-0.74-4.09-0.88c-2.47-0.13-5.25-0.76-5.25-4.3c0-2.7,2.49-4.26,6.3-4.26
		c2.64,0,4.3,0.42,5.4,0.97c0.23,0.11,0.3,0.23,0.3,0.55v2.76c0,0.51-0.15,0.59-0.51,0.34c-1.05-0.72-2.66-1.2-5.19-1.2
		c-1.41,0-2.68,0.25-2.68,1.03c0,0.68,1.43,0.7,3.12,0.8c2.97,0.17,6.22,0.61,6.22,4.38c0,2.7-2.57,4.3-6.85,4.3
		C60.42,48.74,58.39,48.28,57.28,47.73L57.28,47.73z"/>
	<path class="st4" d="M71.38,48.05V35.5c0-0.21,0.17-0.38,0.38-0.38h2.85c0.21,0,0.38,0.17,0.38,0.38v12.56
		c0,0.21-0.17,0.38-0.38,0.38h-2.85C71.55,48.43,71.38,48.26,71.38,48.05z"/>
	<path class="st4" d="M77.13,48.05V35.5c0-0.21,0.17-0.38,0.38-0.38h2.85c0.21,0,0.38,0.17,0.38,0.38v9.51h6.37
		c0.21,0,0.38,0.17,0.38,0.38v2.66c0,0.21-0.17,0.38-0.38,0.38h-9.61C77.3,48.43,77.13,48.26,77.13,48.05L77.13,48.05z"/>
	<path class="st4" d="M12.5,58.21c0-4.24,3.12-6.94,8.27-6.94c1.2,0,3.02,0.21,4.46,0.84c0.14,0.06,0.26,0.17,0.26,0.32v2.95
		c0,0.23-0.24,0.34-0.47,0.23c-1.26-0.65-2.8-0.91-4.25-0.91c-2.84,0-4.42,1.2-4.42,3.52c0,2.32,1.58,3.56,4.42,3.56
		c1.46,0,2.92-0.36,4.25-0.93c0.22-0.1,0.47,0.02,0.47,0.25l0.04,2.97c0,0.13-0.08,0.27-0.22,0.32c-1.68,0.65-3.34,0.82-4.54,0.82
		C15.62,65.19,12.5,62.41,12.5,58.21L12.5,58.21z"/>
	<path class="st4" d="M26.4,64.28l5.13-12.48c0.06-0.15,0.22-0.23,0.36-0.23h5.55c0.14,0,0.3,0.08,0.36,0.23l5.13,12.48
		c0.12,0.32-0.1,0.61-0.45,0.61h-3.3c-0.14,0-0.3-0.08-0.36-0.23l-0.99-2.4H31.5l-0.99,2.4c-0.06,0.15-0.22,0.23-0.36,0.23h-3.3
		C26.5,64.88,26.28,64.58,26.4,64.28L26.4,64.28z M36.39,58.83l-1.72-4.26l-1.72,4.26H36.39L36.39,58.83z"/>
	<path class="st4" d="M42.77,58.21c0-4.24,3.12-6.94,8.27-6.94c1.2,0,3.02,0.21,4.46,0.84c0.14,0.06,0.26,0.17,0.26,0.32v2.95
		c0,0.23-0.24,0.34-0.47,0.23c-1.26-0.65-2.8-0.91-4.25-0.91c-2.84,0-4.42,1.2-4.42,3.52c0,2.32,1.58,3.56,4.42,3.56
		c1.46,0,2.92-0.36,4.25-0.93c0.22-0.1,0.47,0.02,0.47,0.25l0.04,2.97c0,0.13-0.08,0.27-0.22,0.32c-1.68,0.65-3.34,0.82-4.54,0.82
		C45.89,65.19,42.77,62.41,42.77,58.21L42.77,58.21z"/>
	<path class="st4" d="M56.67,64.28l5.13-12.48c0.06-0.15,0.22-0.23,0.36-0.23h5.55c0.14,0,0.3,0.08,0.36,0.23l5.13,12.48
		c0.12,0.32-0.1,0.61-0.45,0.61h-3.3c-0.14,0-0.3-0.08-0.36-0.23l-0.99-2.4h-6.32l-0.99,2.4c-0.06,0.15-0.22,0.23-0.36,0.23h-3.3
		C56.77,64.88,56.54,64.58,56.67,64.28L56.67,64.28z M66.65,58.83l-1.72-4.26l-1.72,4.26H66.65L66.65,58.83z"/>
	<path class="st4" d="M73.42,58.21v-6.26c0-0.21,0.18-0.38,0.41-0.38h3.04c0.22,0,0.41,0.17,0.41,0.38v6.26
		c0,2.47,1.09,3.75,3.2,3.75c2.11,0,3.18-1.27,3.18-3.75v-6.26c0-0.21,0.18-0.38,0.4-0.38h3.04c0.22,0,0.4,0.17,0.4,0.38v6.26
		c0,4.6-2.39,6.98-7.03,6.98C75.83,65.19,73.42,62.81,73.42,58.21L73.42,58.21z"/>
</g>
</svg>
