<?xml version="1.0" encoding="utf-8"?>
<!-- Generator: Adobe Illustrator 27.1.1, SVG Export Plug-In . SVG Version: 6.00 Build 0)  -->
<svg version="1.1" id="Camada_1" xmlns="http://www.w3.org/2000/svg" xmlns:xlink="http://www.w3.org/1999/xlink" x="0px" y="0px"
	 viewBox="0 0 100 100" style="enable-background:new 0 0 100 100;" xml:space="preserve">
<style type="text/css">
	.st0{fill:#BF228B;}
	.st1{fill:#2662AA;}
	.st2{fill:#E23A07;}
	.st3{fill:#990824;}
	.st4{fill:#FFFFFF;}
	.st5{fill:#5C2504;}
</style>
<g>
	<path id="path2_00000013884715262928724900000007107772472246545597_" class="st4" d="M86.7,84.78
		c-7.48,8.21-17.61,13.25-28.78,13.25c-23.04,0-41.72-21.48-41.72-47.97c0-26.5,17.07-47.86,40.1-47.86
		c7.54,0,14.39,2.33,19.28,7.41c3.71,3.88,1.06,9.09,3.23,12.34c3.47,5.24,10.04,4.03,12.18,1.8c3.55-3.72,1.83-8.64-1.1-11.64
		C81.36,3.36,69.28,0,56.53,0C28.3,0,7.01,22.29,7.01,49.94c0,27.65,22.9,50.06,51.13,50.06c12.63,0,24.19-4.48,33.12-11.93
		c1.17-0.98,1.91-3.47,0.49-4.64C89.76,81.76,87.52,83.87,86.7,84.78L86.7,84.78z"/>
	<path id="path4_00000072988639972165864180000011324088981279753089_" class="st4" d="M59.62,82.69c0-0.61-0.48-0.86-1.49-0.86
		c-3.26-0.13-7.64-0.99-9.7-4.41c-3.48-5.77-0.31-9.42-1.39-13.57c-1.08-4.16-5.75-6.51-10.04-3.65c-5.06,3.38-1.35,13.12,5.26,18
		c2.59,1.91,7.07,3.97,12.14,4.97c1.53,0.3,2.84,0.38,3.95,0.35C59.3,83.53,59.62,83.24,59.62,82.69L59.62,82.69z"/>
	<path id="path6_00000039102735533151730000000001587808029036523156_" class="st4" d="M82.68,48.9
		c-6.21-6.2-19.85-10.04-28.83-12.88c-6.56-2.25-9.45-6.25-9.43-11.02c0.03-7.4,5.81-9.29,8.98-10.17c1.3-0.37,1.11-1.07,0.93-1.43
		c-0.24-0.5-0.74-0.75-1.71-0.5c-3.76,1.03-6.65,2.39-9.6,4.7c-7.14,5.63-10.37,23.78,9.13,29.91c0.75,0.25,13.68,4.94,17.2,6.24
		c6.56,2.43,12.48,5.81,13.13,14.37c0.49,6.52-4.35,10.03-7.72,11.63c-0.67,0.35-0.65,0.79-0.41,1.12c0.24,0.36,0.83,0.54,1.74,0.1
		c2.16-1.07,4.88-2.87,7.73-5.96C90.2,68.14,90.59,56.8,82.68,48.9z"/>
</g>
</svg>
