<?xml version="1.0" encoding="utf-8"?>
<!-- Generator: Adobe Illustrator 27.1.1, SVG Export Plug-In . SVG Version: 6.00 Build 0)  -->
<svg version="1.1" id="Camada_1" xmlns="http://www.w3.org/2000/svg" xmlns:xlink="http://www.w3.org/1999/xlink" x="0px" y="0px"
	 viewBox="0 0 100 100" style="enable-background:new 0 0 100 100;" xml:space="preserve">
<style type="text/css">
	.st0{fill:#BF228B;}
	.st1{fill:#2662AA;}
	.st2{fill:#E23A07;}
	.st3{fill:#990824;}
	.st4{fill:#FFFFFF;}
	.st5{fill:#5C2504;}
</style>
<path class="st5" d="M85,100H15c-8.28,0-15-6.72-15-15V15C0,6.72,6.72,0,15,0h70c8.28,0,15,6.72,15,15v70
	C100,93.28,93.28,100,85,100z"/>
<g>
	<path id="path2_00000141438723665725886470000011795109103572390579_" class="st4" d="M77.53,76.09
		c-5.61,6.15-13.21,9.94-21.58,9.94c-17.28,0-31.29-16.11-31.29-35.98c0-19.88,12.8-35.9,30.08-35.9c5.65,0,10.8,1.74,14.46,5.56
		c2.78,2.91,0.79,6.82,2.42,9.26c2.6,3.93,7.53,3.02,9.13,1.35c2.66-2.79,1.37-6.48-0.83-8.73c-6.4-6.56-15.46-9.08-25.03-9.08
		c-21.17,0-37.14,16.72-37.14,37.46c0,20.74,17.17,37.54,38.35,37.54c9.47,0,18.15-3.36,24.84-8.95c0.88-0.73,1.43-2.6,0.37-3.48
		C79.82,73.82,78.14,75.41,77.53,76.09L77.53,76.09z"/>
	<path id="path4_00000152959752336561104260000010236439945641917092_" class="st4" d="M57.21,74.52c0-0.46-0.36-0.64-1.12-0.64
		c-2.45-0.1-5.73-0.74-7.27-3.31c-2.61-4.33-0.23-7.07-1.04-10.18c-0.81-3.12-4.31-4.88-7.53-2.74c-3.79,2.53-1.01,9.84,3.95,13.5
		c1.94,1.43,5.3,2.98,9.11,3.73c1.15,0.22,2.13,0.29,2.96,0.26C56.98,75.15,57.21,74.93,57.21,74.52L57.21,74.52z"/>
	<path id="path6_00000112633029264799351000000000043312913715501226_" class="st4" d="M74.51,49.18
		c-4.66-4.65-14.89-7.53-21.63-9.66c-4.92-1.69-7.09-4.69-7.07-8.27c0.03-5.55,4.36-6.97,6.74-7.63c0.97-0.28,0.84-0.81,0.7-1.07
		c-0.18-0.38-0.55-0.56-1.28-0.38c-2.82,0.77-4.99,1.79-7.2,3.52c-5.36,4.22-7.78,17.84,6.85,22.44c0.56,0.19,10.26,3.7,12.9,4.68
		c4.92,1.83,9.36,4.36,9.85,10.78c0.37,4.89-3.27,7.52-5.79,8.72c-0.5,0.26-0.49,0.59-0.31,0.84c0.18,0.27,0.62,0.4,1.3,0.07
		c1.62-0.81,3.66-2.16,5.8-4.47C80.15,63.61,80.44,55.1,74.51,49.18z"/>
</g>
</svg>
