<?xml version="1.0" encoding="utf-8"?>
<!-- Generator: Adobe Illustrator 27.1.1, SVG Export Plug-In . SVG Version: 6.00 Build 0)  -->
<svg version="1.1" id="Camada_1" xmlns="http://www.w3.org/2000/svg" xmlns:xlink="http://www.w3.org/1999/xlink" x="0px" y="0px"
	 viewBox="0 0 100 100" style="enable-background:new 0 0 100 100;" xml:space="preserve">
<style type="text/css">
	.st0{fill:#BF228B;}
	.st1{fill:#2662AA;}
	.st2{fill:#E23A07;}
	.st3{fill:#990824;}
	.st4{fill:#FFFFFF;}
	.st5{fill:#5C2504;}
</style>
<g>
	<path class="st4" d="M52.02,87.5c-1.39,0-2.78,0-4.17,0c-0.86-1.78-1.37-3.68-1.83-5.6c-0.06-0.26-0.14-0.39-0.42-0.42
		c-1.14-0.1-2.26-0.33-3.35-0.64c-0.54-0.15-0.8,0-1.09,0.42c-0.96,1.37-2.03,2.66-3.23,3.83c-0.24,0.23-0.44,0.31-0.74,0.18
		c-1.06-0.46-2.13-0.91-3.2-1.35c-0.28-0.11-0.38-0.27-0.39-0.58c-0.06-1.8,0.14-3.58,0.45-5.35c0.06-0.33-0.02-0.48-0.28-0.64
		c-0.97-0.56-1.91-1.17-2.79-1.87c-0.32-0.26-0.56-0.26-0.92-0.04c-1.45,0.91-2.94,1.74-4.54,2.37c-0.35,0.14-0.59,0.12-0.86-0.16
		c-0.76-0.8-1.54-1.58-2.34-2.34c-0.31-0.29-0.33-0.52-0.18-0.89c0.65-1.63,1.5-3.16,2.43-4.65c0.16-0.26,0.21-0.44,0-0.69
		c-0.75-0.92-1.37-1.93-1.98-2.94c-0.13-0.21-0.21-0.36-0.55-0.3c-1.77,0.3-3.55,0.52-5.36,0.46c-0.36-0.01-0.55-0.13-0.68-0.46
		c-0.4-1-0.8-2-1.24-2.98c-0.21-0.45-0.1-0.74,0.23-1.06c1.21-1.19,2.52-2.27,3.9-3.24c0.28-0.19,0.38-0.36,0.28-0.75
		c-0.29-1.1-0.53-2.21-0.65-3.35c-0.03-0.33-0.18-0.42-0.49-0.5c-1.72-0.41-3.42-0.86-5.04-1.59c-0.23-0.1-0.44-0.2-0.49-0.48
		c0-1.31,0-2.62,0-3.93c0.13-0.19,0.32-0.28,0.53-0.38c1.6-0.72,3.29-1.17,4.99-1.57c0.3-0.07,0.47-0.16,0.5-0.49
		c0.1-1.12,0.34-2.21,0.63-3.29c0.12-0.42,0-0.62-0.32-0.85c-1.4-0.99-2.74-2.06-3.94-3.29c-0.26-0.27-0.34-0.5-0.19-0.86
		c0.44-1.01,0.85-2.03,1.25-3.05c0.15-0.38,0.38-0.51,0.78-0.51c1.76-0.04,3.5,0.18,5.23,0.46c0.35,0.06,0.46-0.04,0.61-0.3
		c0.56-0.95,1.14-1.89,1.83-2.75c0.26-0.33,0.24-0.57,0.02-0.91c-0.94-1.46-1.77-2.97-2.41-4.59c-0.11-0.28-0.11-0.47,0.11-0.7
		c0.78-0.87,1.6-1.7,2.45-2.5c0.33-0.31,0.62-0.35,1.03-0.18c1.54,0.66,3.01,1.46,4.42,2.35c0.3,0.19,0.5,0.25,0.85-0.01
		c0.86-0.65,1.76-1.26,2.68-1.81c0.43-0.25,0.47-0.53,0.39-0.95c-0.3-1.69-0.5-3.39-0.46-5.11c0.01-0.31,0.1-0.48,0.38-0.6
		c1-0.45,2.02-0.86,3.03-1.29c0.57-0.24,0.91-0.13,1.31,0.3c1.1,1.18,2.12,2.42,3.06,3.74c0.13,0.18,0.21,0.49,0.54,0.39
		c1.25-0.37,2.53-0.59,3.82-0.79c0.27-0.04,0.34-0.17,0.4-0.43c0.41-1.72,0.87-3.42,1.58-5.05c0.14-0.32,0.3-0.47,0.67-0.46
		c1.17,0.03,2.33,0.02,3.5,0c0.34-0.01,0.49,0.11,0.62,0.41c0.71,1.59,1.17,3.25,1.55,4.93c0.1,0.46,0.32,0.62,0.72,0.66
		c0.97,0.1,1.93,0.29,2.87,0.55c0.55,0.15,0.82,0.03,1.13-0.43c0.89-1.32,1.94-2.53,3.02-3.69c0.33-0.36,0.62-0.44,1.1-0.25
		c1.02,0.41,2.03,0.82,3.04,1.25c0.42,0.18,0.56,0.42,0.55,0.87c-0.03,1.62-0.19,3.21-0.48,4.8c-0.08,0.47-0.05,0.79,0.46,1.08
		c0.92,0.51,1.8,1.12,2.64,1.76c0.34,0.25,0.53,0.22,0.85,0.02c1.42-0.88,2.87-1.69,4.41-2.35c0.5-0.22,0.82-0.13,1.18,0.25
		c0.7,0.74,1.42,1.47,2.17,2.17c0.37,0.35,0.41,0.65,0.21,1.11c-0.66,1.59-1.5,3.08-2.42,4.52c-0.17,0.26-0.18,0.43,0.03,0.68
		c0.72,0.91,1.35,1.89,1.95,2.89c0.16,0.26,0.28,0.34,0.61,0.28c1.73-0.28,3.47-0.5,5.23-0.51c0.38,0,0.59,0.13,0.74,0.48
		c0.47,1.04,0.89,2.09,1.31,3.15c0.15,0.38,0.1,0.62-0.18,0.91c-1.23,1.27-2.63,2.32-4.04,3.37c-0.15,0.11-0.35,0.15-0.27,0.45
		c0.33,1.2,0.57,2.41,0.74,3.64c0.04,0.33,0.21,0.45,0.54,0.52c1.7,0.39,3.38,0.86,4.99,1.56c0.3,0.13,0.44,0.26,0.43,0.61
		c-0.03,1.19-0.03,2.37,0,3.56c0.01,0.38-0.15,0.52-0.46,0.66c-1.59,0.7-3.25,1.16-4.93,1.54c-0.45,0.1-0.57,0.33-0.61,0.68
		c-0.12,1.14-0.39,2.24-0.67,3.34c-0.09,0.34,0.01,0.46,0.25,0.63c1.39,1,2.74,2.05,3.96,3.27c0.36,0.36,0.39,0.65,0.21,1.07
		c-0.41,0.93-0.82,1.86-1.17,2.81c-0.2,0.56-0.53,0.74-1.1,0.72c-1.69-0.07-3.38-0.22-5.05-0.52c-0.28-0.05-0.39,0-0.52,0.23
		c-0.59,1.02-1.24,2.01-1.98,2.94c-0.26,0.32-0.24,0.53-0.03,0.85c0.89,1.44,1.72,2.91,2.35,4.49c0.17,0.41,0.11,0.69-0.2,1.01
		c-0.77,0.79-1.54,1.58-2.37,2.31c-0.25,0.22-0.44,0.26-0.76,0.14c-1.62-0.63-3.14-1.46-4.6-2.4c-0.39-0.25-0.64-0.18-0.95,0.06
		c-0.85,0.67-1.75,1.26-2.7,1.79c-0.38,0.21-0.44,0.43-0.37,0.83c0.3,1.71,0.48,3.43,0.46,5.18c-0.01,0.35-0.14,0.51-0.44,0.63
		c-1.04,0.41-2.07,0.83-3.1,1.27c-0.37,0.16-0.61,0.1-0.91-0.19c-1.27-1.23-2.34-2.62-3.38-4.04c-0.18-0.25-0.3-0.32-0.63-0.24
		c-1.04,0.26-2.1,0.48-3.16,0.63c-0.42,0.06-0.59,0.18-0.68,0.59c-0.36,1.63-0.82,3.23-1.47,4.76
		C52.39,87.08,52.32,87.37,52.02,87.5z M49.97,75.9c14.15,0.01,25.71-11.23,25.96-25.42C76.2,35.85,64.6,24.24,50.42,24.07
		C35.9,23.88,24.22,35.37,24.1,49.78C23.98,64.16,35.52,75.81,49.97,75.9z"/>
	<path class="st4" d="M33.72,51.03c0,1.21,0,2.41,0,3.74c1.91-1.3,3.73-2.54,5.62-3.84c0,1.29,0,2.5,0,3.85
		c1.92-1.31,3.75-2.56,5.67-3.87c0,1.18,0.03,2.25-0.01,3.32c-0.02,0.47,0.12,0.58,0.58,0.56c0.98-0.03,1.01,0,1.07-0.94
		c0.13-1.92,0.23-3.83,0.34-5.75c0.15-2.49,0.29-4.97,0.44-7.46c0.1-1.69,0.2-3.38,0.29-5.08c0.05-0.86,0.09-1.71,0.12-2.57
		c0.01-0.26,0.07-0.37,0.35-0.36c0.51,0.02,1.02,0.02,1.53,0c0.28-0.01,0.33,0.13,0.34,0.37c0.11,2.02,0.24,4.04,0.36,6.06
		c0.15,2.53,0.3,5.06,0.45,7.58c0.1,1.69,0.19,3.39,0.28,5.08c0.05,0.9,0.09,1.8,0.12,2.69c0.01,0.26,0.09,0.35,0.35,0.38
		c0.94,0.1,1.05,0.03,1.1-0.89c0.14-2.45,0.25-4.9,0.4-7.34c0.18-3.12,0.39-6.24,0.58-9.36c0.12-2.04,0.24-4.08,0.34-6.12
		c0.02-0.4,0.13-0.58,0.57-0.54c0.53,0.05,1.2-0.16,1.55,0.1c0.38,0.28,0.12,0.99,0.16,1.52c0.21,3.38,0.4,6.77,0.61,10.15
		c0.24,4.04,0.49,8.07,0.73,12.11c0.01,0.26,0.09,0.34,0.35,0.37c1.25,0.11,1.25,0.12,1.25-1.11c0-2.19,0.01-4.38-0.01-6.56
		c0-0.43,0.1-0.55,0.53-0.54c1.72,0.03,3.44,0,5.15,0.02c0.43,0.01,0.61-0.08,0.6-0.56c-0.03-1.14,0-1.14,1.14-1.14
		c0.98,0,1.96,0.01,2.94-0.01c0.39-0.01,0.53,0.09,0.53,0.51c0,1.19,0.02,1.21,1.23,1.19c0.5-0.01,0.61,0.15,0.61,0.62
		c-0.02,4.01-0.01,8.02-0.01,12.02c0,0.31-0.06,0.6-0.19,0.88c-3.41,6.99-8.86,11.52-16.44,13.26c-7.32,1.68-14.02,0.12-20.01-4.39
		c-3.12-2.35-5.45-5.37-7.12-8.9c-0.1-0.21-0.13-0.42-0.13-0.65c0.01-1.39,0.01-2.78,0-4.17c0-0.34,0.08-0.54,0.38-0.74
		c1.61-1.08,3.2-2.19,4.8-3.28C33.39,51.14,33.5,51.01,33.72,51.03z M42.8,58.4c-0.01-1.3,0.1-1.08-0.78-1.09
		c-1.15-0.02-1.15-0.01-1.15,1.15c0,0.93,0,0.93,0.93,0.93C42.79,59.39,42.79,59.39,42.8,58.4z M42.8,61.23
		c-0.01-1.21,0.13-1.04-0.82-1.06c-1.11-0.03-1.11-0.02-1.11,1.13c0,0.93,0,0.93,0.94,0.93C42.8,62.23,42.8,62.23,42.8,61.23z
		 M35.16,58.39c0,1.01,0,1.01,0.83,1.01c1.06,0,1.06,0,1.06-1.16c0-0.92,0-0.92-0.81-0.92C35.16,57.31,35.16,57.31,35.16,58.39z
		 M37.04,61.21c0-0.2-0.02-0.41,0-0.61c0.06-0.52-0.33-0.49-0.59-0.4c-0.43,0.14-1.12-0.46-1.28,0.39
		c-0.08,0.41,0.01,0.86-0.02,1.29c-0.02,0.31,0.09,0.4,0.38,0.38c0.16-0.02,0.33,0,0.49,0C37.04,62.23,37.04,62.23,37.04,61.21z
		 M34.13,58.37c0-1.07,0-1.07-1.04-1.07c-0.83,0-0.83,0-0.83,1.21c0,0.88,0,0.88,0.85,0.88C34.13,59.4,34.13,59.4,34.13,58.37z
		 M39.88,58.35c0-0.12-0.02-0.25,0-0.37c0.11-0.58-0.17-0.71-0.7-0.69c-1.15,0.04-1.15,0.01-1.15,1.27c0,0.83,0,0.83,0.79,0.83
		C39.88,59.4,39.88,59.4,39.88,58.35z M32.26,61.19c0,1.04,0,1.04,0.71,1.04c1.16,0,1.17,0,1.16-1.2c0-0.96,0.12-0.86-0.84-0.86
		C32.26,60.17,32.26,60.17,32.26,61.19z M39.88,61.22c0-0.1-0.02-0.21,0-0.31c0.12-0.63-0.14-0.79-0.76-0.76
		c-1.09,0.05-1.09,0.01-1.09,1.15c0,0.92,0,0.92,0.88,0.92C39.88,62.23,39.88,62.23,39.88,61.22z M62.72,54.53
		c0-1.4,0-1.38-1.09-1.33c-0.32,0.02-0.42,0.12-0.41,0.44c0.02,0.57,0.03,1.14,0,1.72c-0.02,0.36,0.12,0.45,0.45,0.45
		c1.04,0.02,1.04,0.04,1.04-1.03C62.72,54.69,62.72,54.61,62.72,54.53z M65.19,54.51c0-1.35,0-1.34-1.05-1.31
		c-0.34,0.01-0.47,0.11-0.45,0.46c0.03,0.53,0.03,1.06,0,1.59c-0.03,0.43,0.12,0.55,0.55,0.55c1.17-0.01,0.94,0.05,0.96-0.93
		C65.19,54.75,65.19,54.63,65.19,54.51z M67.65,54.52c0-1.34,0-1.31-0.98-1.32c-0.45-0.01-0.55,0.16-0.53,0.57
		c0.03,0.47,0.04,0.94,0,1.41c-0.05,0.53,0.16,0.65,0.65,0.63c0.86-0.04,0.86-0.01,0.86-0.86C67.65,54.81,67.65,54.67,67.65,54.52z
		 M70.1,54.49c0-1.3,0-1.27-0.94-1.3c-0.47-0.01-0.6,0.16-0.57,0.6c0.04,0.45,0.04,0.9,0,1.34c-0.04,0.49,0.09,0.68,0.62,0.67
		c1.05-0.03,0.86,0.05,0.88-0.89C70.1,54.78,70.1,54.63,70.1,54.49z M62.72,50.39c-0.01-1.41-0.01-1.4-1.15-1.32
		c-0.26,0.02-0.35,0.09-0.35,0.36c0.02,0.55,0.04,1.1-0.01,1.65c-0.04,0.5,0.14,0.62,0.61,0.59c1.04-0.05,0.87,0.16,0.89-0.91
		C62.73,50.64,62.72,50.52,62.72,50.39z M65.19,50.39c0-1.41,0-1.39-1.16-1.31c-0.27,0.02-0.35,0.09-0.35,0.36
		c0.02,0.53,0.05,1.06-0.01,1.59c-0.06,0.57,0.17,0.68,0.68,0.65c0.95-0.05,0.82,0.14,0.84-0.85
		C65.19,50.68,65.19,50.54,65.19,50.39z M66.14,50.39c0,1.28,0,1.28,0.7,1.27c0.9-0.01,0.79,0.15,0.8-0.82c0-0.37-0.03-0.74,0-1.1
		c0.05-0.51-0.09-0.71-0.65-0.68c-0.85,0.05-0.86,0.01-0.86,0.89C66.14,50.1,66.14,50.24,66.14,50.39z M68.6,50.36
		c0,0.33,0,0.65,0,0.98c0,0.18,0.04,0.29,0.26,0.33c1.04,0.19,1.24,0.03,1.24-1c0-0.29-0.03-0.58,0.01-0.86
		c0.08-0.59-0.12-0.78-0.73-0.74c-0.9,0.07-0.77-0.09-0.78,0.8C68.6,50.03,68.6,50.2,68.6,50.36z M62.72,58.58
		c0-1.3,0-1.28-1.01-1.28c-0.36,0-0.51,0.09-0.49,0.48c0.03,0.44,0.05,0.9,0,1.34c-0.08,0.63,0.14,0.81,0.78,0.8
		c0.58-0.01,0.83-0.13,0.73-0.73C62.69,58.99,62.72,58.78,62.72,58.58z M65.19,58.65c0-0.1,0-0.2,0-0.31c0-1.12,0-1.11-1.13-1.05
		c-0.3,0.02-0.38,0.12-0.38,0.4c0.01,0.61,0.01,1.22,0,1.83c0,0.25,0.06,0.35,0.33,0.37c1.17,0.1,1.17,0.11,1.17-1.07
		C65.19,58.77,65.19,58.71,65.19,58.65z M67.65,58.55c0-1.28,0-1.26-1.05-1.25c-0.4,0-0.48,0.16-0.46,0.51
		c0.02,0.43,0.01,0.85,0.01,1.28c0,0.81,0,0.78,0.8,0.82c0.54,0.03,0.79-0.12,0.71-0.69C67.62,59,67.65,58.77,67.65,58.55z
		 M70.1,58.59c0-1.39,0-1.38-1.14-1.29c-0.26,0.02-0.37,0.09-0.36,0.36c0.01,0.47,0,0.94,0,1.41c0.01,0.95-0.13,0.78,0.8,0.84
		c0.56,0.04,0.79-0.13,0.7-0.7C70.07,59.01,70.1,58.8,70.1,58.59z"/>
</g>
</svg>
