<?xml version="1.0" encoding="utf-8"?>
<!-- Generator: Adobe Illustrator 27.1.1, SVG Export Plug-In . SVG Version: 6.00 Build 0)  -->
<svg version="1.1" id="Camada_1" xmlns="http://www.w3.org/2000/svg" xmlns:xlink="http://www.w3.org/1999/xlink" x="0px" y="0px"
	 viewBox="0 0 100 100" style="enable-background:new 0 0 100 100;" xml:space="preserve">
<style type="text/css">
	.st0{fill:#BF228B;}
	.st1{fill:#2662AA;}
	.st2{fill:#E23A07;}
	.st3{fill:#990824;}
	.st4{fill:#FFFFFF;}
	.st5{fill:#5C2504;}
</style>
<path class="st3" d="M85,100H15c-8.28,0-15-6.72-15-15V15C0,6.72,6.72,0,15,0h70c8.28,0,15,6.72,15,15v70
	C100,93.28,93.28,100,85,100z"/>
<path class="st4" d="M78.39,12.74c-0.35-0.39-0.72-0.26-1.02,0.09c-0.14,0.16-0.25,0.34-0.36,0.52c-0.85,1.45-1.69,2.91-2.55,4.35
	c-2.66,4.44-5.32,8.87-7.98,13.31c-2.17,3.6-4.34,7.21-6.51,10.81c-1.67,2.77-3.34,5.55-5.05,8.3c-0.5,0.81-0.89,1.72-1.82,2.21
	c-2.57,1.34-5.12,2.71-7.7,4.04c-0.4,0.21-0.44,0.42-0.34,0.79c0.51,1.9,1,3.81,1.64,5.68c0.11,0.32,0.06,0.6-0.14,0.89
	c-0.43,0.64-0.83,1.31-1.25,1.97c-1.42,2.26-2.84,4.52-4.25,6.79c-0.09,0.14-0.15,0.26-0.33,0.21c-0.23-0.07-0.26-0.26-0.24-0.46
	c0.1-0.97,0.01-1.93-0.01-2.9c-0.09-4.21-0.1-8.43-0.28-12.63c-0.22-5.11-0.18-10.23-0.54-15.34c0.04-1.1-0.03-2.19-0.1-3.28
	c-0.12-1.89-0.19-3.79-0.24-5.68c-0.01-0.58-0.28-0.68-0.75-0.6c-0.82,0.15-1.18,0.77-1.44,1.45c-1.02,2.67-1.98,5.36-3.04,8
	c-1.23,3.06-2.55,6.08-3.8,9.12c-1.72,4.2-3.59,8.33-5.47,12.46c-1.79,3.94-3.7,7.82-5.73,11.65c-0.13,0.24-0.49,0.48-0.21,0.77
	c0.25,0.27,0.63,0.17,0.96,0.07c0.2-0.06,0.4-0.16,0.55-0.29c0.58-0.48,1.11-1.02,1.57-1.63c2.77-3.66,5.19-7.55,7.49-11.52
	c0.88-1.52,1.81-3.03,2.45-4.68c0.06-0.16,0.15-0.33,0.36-0.28c0.2,0.04,0.24,0.23,0.23,0.4c-0.01,0.42-0.08,0.84-0.06,1.26
	c0.05,1.64,0.16,3.28,0.17,4.92c0.01,4.04,0.22,8.08,0.37,12.12c0.13,3.49,0.33,6.98,0.47,10.47c0.04,0.89,0.69,1.4,1.54,1.11
	c0.65-0.23,1.16-0.66,1.57-1.22c0.94-1.29,1.73-2.68,2.57-4.04c1.59-2.58,3.18-5.15,4.77-7.72c1.29-2.09,2.59-4.18,3.89-6.27
	c0.09-0.15,0.17-0.3,0.38-0.27c0.21,0.02,0.26,0.18,0.31,0.35c0.72,2.13,1.57,4.21,2.44,6.28c0.91,2.2,1.91,4.35,3.03,6.44
	c1.05,1.94,2.12,3.89,3.72,5.45c1.37,1.34,2.33,1.8,4.34,0.7c2.17-1.19,3.76-3,5.2-4.96c0.28-0.39,0.3-0.62-0.04-1
	c-2.07-2.28-3.63-4.91-5.02-7.62c-1.43-2.78-2.65-5.67-3.76-8.6c-1.03-2.73-2.04-5.47-3.06-8.21c-0.09-0.25-0.1-0.49,0.06-0.72
	c1.46-2.16,2.79-4.4,4.19-6.6c2.95-4.63,5.9-9.26,8.87-13.88c2.47-3.84,4.91-7.69,7.45-11.48c1.69-2.51,3.31-5.08,5.19-7.46
	c0.13-0.16,0.23-0.3,0.06-0.49C80.22,14.82,79.31,13.77,78.39,12.74z"/>
</svg>
