<?xml version="1.0" encoding="utf-8"?>
<!-- Generator: Adobe Illustrator 27.1.1, SVG Export Plug-In . SVG Version: 6.00 Build 0)  -->
<svg version="1.1" id="Camada_1" xmlns="http://www.w3.org/2000/svg" xmlns:xlink="http://www.w3.org/1999/xlink" x="0px" y="0px"
	 viewBox="0 0 100 100" style="enable-background:new 0 0 100 100;" xml:space="preserve">
<style type="text/css">
	.st0{fill:#BF228B;}
	.st1{fill:#2662AA;}
	.st2{fill:#E23A07;}
	.st3{fill:#990824;}
	.st4{fill:#FFFFFF;}
	.st5{fill:#5C2504;}
</style>
<path class="st4" d="M87.85,0.32c-0.46-0.51-0.95-0.35-1.36,0.12C86.3,0.64,86.14,0.88,86,1.12c-1.14,1.93-2.25,3.87-3.4,5.8
	c-3.54,5.92-7.09,11.83-10.64,17.74c-2.89,4.81-5.78,9.61-8.68,14.41c-2.23,3.7-4.46,7.4-6.73,11.07c-0.67,1.08-1.18,2.3-2.42,2.94
	c-3.43,1.79-6.83,3.62-10.27,5.39c-0.54,0.28-0.59,0.56-0.45,1.06c0.68,2.54,1.34,5.08,2.19,7.57c0.14,0.42,0.08,0.8-0.18,1.19
	c-0.58,0.86-1.11,1.75-1.66,2.63c-1.89,3.01-3.79,6.03-5.67,9.05c-0.11,0.18-0.2,0.35-0.44,0.27c-0.3-0.09-0.34-0.34-0.32-0.61
	c0.14-1.29,0.02-2.58-0.01-3.87c-0.12-5.61-0.13-11.23-0.38-16.84c-0.3-6.82-0.24-13.64-0.72-20.45c0.05-1.46-0.04-2.92-0.13-4.37
	c-0.16-2.52-0.25-5.05-0.32-7.57c-0.02-0.77-0.37-0.91-1.01-0.8c-1.09,0.2-1.57,1.03-1.92,1.94c-1.36,3.55-2.64,7.14-4.05,10.67
	c-1.63,4.08-3.41,8.1-5.07,12.17c-2.29,5.6-4.79,11.11-7.29,16.61c-2.39,5.25-4.94,10.43-7.64,15.53c-0.17,0.32-0.65,0.64-0.28,1.03
	c0.34,0.36,0.85,0.23,1.28,0.1c0.26-0.08,0.53-0.21,0.74-0.39c0.78-0.64,1.49-1.36,2.1-2.17c3.69-4.89,6.92-10.07,9.98-15.37
	c1.17-2.03,2.41-4.04,3.27-6.24c0.09-0.22,0.2-0.44,0.48-0.37c0.27,0.06,0.31,0.31,0.31,0.54c-0.02,0.56-0.1,1.12-0.09,1.68
	c0.06,2.19,0.21,4.38,0.22,6.56c0.01,5.39,0.3,10.78,0.5,16.16c0.17,4.66,0.43,9.31,0.63,13.96c0.05,1.19,0.92,1.87,2.06,1.47
	c0.87-0.31,1.55-0.88,2.09-1.63c1.25-1.73,2.31-3.58,3.43-5.39c2.12-3.44,4.24-6.87,6.37-10.3c1.73-2.79,3.46-5.57,5.18-8.36
	c0.12-0.2,0.23-0.39,0.5-0.37c0.27,0.03,0.34,0.24,0.42,0.46c0.95,2.84,2.1,5.61,3.25,8.38c1.22,2.93,2.54,5.8,4.04,8.59
	c1.4,2.59,2.83,5.19,4.96,7.26c1.83,1.78,3.11,2.4,5.79,0.94c2.9-1.58,5.01-4,6.94-6.62c0.38-0.51,0.4-0.82-0.06-1.33
	c-2.76-3.03-4.84-6.54-6.69-10.16c-1.9-3.71-3.53-7.56-5.01-11.46c-1.38-3.64-2.72-7.29-4.08-10.94c-0.12-0.33-0.14-0.65,0.07-0.96
	c1.95-2.88,3.72-5.87,5.59-8.8c3.93-6.18,7.87-12.35,11.82-18.51c3.29-5.12,6.55-10.25,9.94-15.3c2.25-3.35,4.41-6.77,6.92-9.94
	c0.17-0.22,0.3-0.4,0.08-0.66C90.29,3.1,89.09,1.69,87.85,0.32z"/>
</svg>
