<?xml version="1.0" encoding="utf-8"?>
<!-- Generator: Adobe Illustrator 27.1.1, SVG Export Plug-In . SVG Version: 6.00 Build 0)  -->
<svg version="1.1" id="Camada_1" xmlns="http://www.w3.org/2000/svg" xmlns:xlink="http://www.w3.org/1999/xlink" x="0px" y="0px"
	 viewBox="0 0 100 100" style="enable-background:new 0 0 100 100;" xml:space="preserve">
<style type="text/css">
	.st0{fill:#BF228B;}
	.st1{fill:#2662AA;}
	.st2{fill:#E23A07;}
	.st3{fill:#990824;}
	.st4{fill:#FFFFFF;}
	.st5{fill:#5C2504;}
</style>
<g>
	<path class="st4" d="M32.23,65.18c7.68-12.22,15.97-24.24,25.6-35.02c2.19-2.46,4.49-4.88,6.85-7.04c2.01-1.85,4.2-3.89,6.65-5.27
		c-0.19,0.35-0.41,0.69-0.62,1.01c-0.78,1.16-1.59,2.3-2.4,3.43c-1.66,2.34-3.37,4.64-5.12,6.91c-3.4,4.39-6.98,8.64-10.75,12.72
		c-2.22,2.4-4.51,4.74-6.85,7.02c-1.27,1.24,0.56,3.14,1.96,2.13c4.2-3.03,9.06-4.96,14.26-5.18c4.82-0.21,10.27,1.14,14.23,3.97
		c1.94,1.39,3.4,3.28,3.68,5.7c0.27,2.32-0.34,4.69-1.59,6.65c-2.68,4.19-7.47,6.47-11.91,8.3c-9.54,3.93-20.23,5.53-30.46,3.9
		c-2.73-0.43-5.43-1.03-8.03-1.9C29.2,70.05,30.71,67.6,32.23,65.18z M82.57,13.49C73.87,4.79,62.3,0,50,0
		C37.7,0,26.13,4.79,17.43,13.49c-8.7,8.7-13.49,20.27-13.49,32.57c0,0.14,0.03,0.67,0.05,0.82c0.62,5.96,2.72,11.8,6.28,16.64
		c3.65,4.95,7.96,8.18,12.75,10.37c-1.63,3.09-3.25,6.2-4.83,9.32c-1.56,3.08-3.11,6.17-4.58,9.29c-0.86,1.8-1.68,3.61-2.46,5.44
		c-0.8,1.87,1.93,2.93,2.71,1.12c0.74-1.72,1.51-3.43,2.31-5.13c3-6.41,6.4-12.65,10-18.76c2.24,0.8,4.57,1.41,6.98,1.9
		c11.03,2.26,22.8,0.71,33.21-3.4c4.96-1.96,10.2-4.46,13.49-8.81c3.25-4.3,4.33-10.79,0.64-15.2c-1.74-2.08-4.11-3.47-6.58-4.53
		c-2.6-1.11-5.39-1.87-8.2-2.17c-3.89-0.41-7.82,0.08-11.5,1.32c5.97-6.43,11.49-13.26,16.58-20.43c1.86-2.61,4.35-5.42,4.24-8.82
		c-0.03-1.07-1.1-1.47-1.98-1.19c-3.44,1.08-6.37,3.62-9.03,5.98c-2.26,2-4.39,4.14-6.45,6.34c-4.73,5.06-9.06,10.49-13.19,16.05
		c-0.66,0.89-1.31,1.78-1.96,2.67c1.34-2.32,2.68-4.63,4.04-6.94c2.74-4.65,5.46-9.19,8.29-13.59c0.36-0.56,0.54-1.25,0.13-1.85
		c-0.36-0.52-1.16-0.77-1.74-0.47c-5.22,2.69-9.91,6.43-14.12,10.5c-0.97,0.94-1.91,1.9-2.8,2.9c-0.81,0.9-1.81,1.9-2.36,2.99
		c-0.62,1.23-0.06,2.71,1.39,2.87c1.11,0.13,2.33-0.37,3.3-0.87c0.73-0.38,1.23-1.17,0.95-2.01c-0.17-0.51-0.68-0.88-1.21-0.94
		c0.45-0.52,0.92-1.02,1.39-1.52c1.39-1.46,2.88-2.83,4.41-4.13c1.6-1.36,3.26-2.69,4.99-3.91c-4.53,7.33-8.82,14.81-13.06,22.31
		c-3.93,6.95-7.8,13.94-11.56,20.99c-3.96-1.78-7.59-4.36-10.56-8.19c-1.91-2.47-3.59-5.04-4.73-7.88c-0.5-1.26-0.93-2.54-1.28-3.86
		c-0.34-1.3-0.5-2.05-0.68-3.27C7.1,47.51,7,46.17,7,46.07c0-23.71,19.29-43,43-43s43,19.29,43,43s-19.29,43-43,43
		c-0.85,0-1.53,0.69-1.53,1.53c0,0.85,0.69,1.53,1.53,1.53c12.31,0,23.87-4.79,32.57-13.49c8.7-8.7,13.49-20.27,13.49-32.57
		S91.28,22.19,82.57,13.49z"/>
	<circle class="st4" cx="42.83" cy="90.73" r="1.81"/>
</g>
</svg>
