<?xml version="1.0" encoding="utf-8"?>
<!-- Generator: Adobe Illustrator 27.1.1, SVG Export Plug-In . SVG Version: 6.00 Build 0)  -->
<svg version="1.1" id="Camada_1" xmlns="http://www.w3.org/2000/svg" xmlns:xlink="http://www.w3.org/1999/xlink" x="0px" y="0px"
	 viewBox="0 0 100 100" style="enable-background:new 0 0 100 100;" xml:space="preserve">
<style type="text/css">
	.st0{fill:#BF228B;}
	.st1{fill:#2662AA;}
	.st2{fill:#E23A07;}
	.st3{fill:#990824;}
	.st4{fill:#FFFFFF;}
	.st5{fill:#5C2504;}
</style>
<path class="st0" d="M85,100H15c-8.28,0-15-6.72-15-15V15C0,6.72,6.72,0,15,0h70c8.28,0,15,6.72,15,15v70
	C100,93.28,93.28,100,85,100z"/>
<g>
	<path class="st4" d="M36.67,61.39c5.76-9.17,11.98-18.18,19.2-26.27c1.65-1.84,3.37-3.66,5.14-5.28c1.51-1.39,3.15-2.92,4.99-3.96
		c-0.14,0.26-0.3,0.52-0.47,0.76c-0.58,0.87-1.19,1.72-1.8,2.57c-1.25,1.75-2.53,3.48-3.84,5.18c-2.55,3.29-5.23,6.48-8.06,9.54
		c-1.67,1.8-3.38,3.55-5.14,5.27c-0.95,0.93,0.42,2.35,1.47,1.6c3.15-2.27,6.79-3.72,10.69-3.88c3.62-0.15,7.7,0.86,10.67,2.97
		c1.46,1.04,2.55,2.46,2.76,4.28c0.2,1.74-0.25,3.52-1.19,4.99c-2.01,3.14-5.6,4.85-8.94,6.23c-7.16,2.95-15.17,4.15-22.85,2.92
		c-2.04-0.33-4.07-0.77-6.02-1.42C34.4,65.03,35.53,63.2,36.67,61.39z M74.43,22.62C67.9,16.09,59.23,12.5,50,12.5
		c-9.23,0-17.91,3.59-24.43,10.12c-6.53,6.52-10.12,15.2-10.12,24.43c0,0.11,0.02,0.51,0.03,0.61c0.46,4.47,2.04,8.85,4.71,12.48
		c2.73,3.71,5.97,6.14,9.56,7.78c-1.23,2.32-2.44,4.65-3.63,6.99c-1.17,2.31-2.33,4.62-3.44,6.97c-0.64,1.35-1.26,2.71-1.85,4.08
		c-0.6,1.4,1.45,2.2,2.03,0.84c0.56-1.29,1.14-2.57,1.73-3.85c2.25-4.81,4.8-9.49,7.5-14.07c1.68,0.6,3.43,1.06,5.23,1.43
		c8.27,1.7,17.1,0.53,24.91-2.55c3.72-1.47,7.65-3.34,10.12-6.61c2.44-3.23,3.25-8.09,0.48-11.4c-1.31-1.56-3.08-2.6-4.94-3.4
		c-1.95-0.84-4.04-1.4-6.15-1.62c-2.91-0.31-5.86,0.06-8.62,0.99c4.48-4.82,8.62-9.95,12.44-15.32c1.39-1.96,3.26-4.07,3.18-6.61
		c-0.03-0.8-0.82-1.1-1.48-0.89c-2.58,0.81-4.77,2.71-6.77,4.48c-1.69,1.5-3.3,3.1-4.84,4.75c-3.55,3.8-6.79,7.87-9.89,12.04
		c-0.49,0.67-0.98,1.34-1.47,2.01c1-1.74,2.01-3.47,3.03-5.2c2.05-3.49,4.1-6.9,6.22-10.19c0.27-0.42,0.4-0.94,0.09-1.39
		c-0.27-0.39-0.87-0.58-1.3-0.35c-3.92,2.02-7.43,4.82-10.59,7.87c-0.72,0.7-1.43,1.42-2.1,2.18c-0.6,0.68-1.36,1.43-1.77,2.25
		c-0.46,0.93-0.05,2.03,1.04,2.16c0.83,0.1,1.75-0.28,2.47-0.65c0.54-0.28,0.93-0.88,0.71-1.5c-0.13-0.38-0.51-0.66-0.91-0.7
		c0.34-0.39,0.69-0.77,1.05-1.14c1.05-1.09,2.16-2.12,3.31-3.1c1.2-1.02,2.44-2.02,3.74-2.93c-3.4,5.5-6.62,11.11-9.8,16.73
		c-2.95,5.21-5.85,10.45-8.67,15.74c-2.97-1.33-5.69-3.27-7.92-6.14c-1.44-1.85-2.69-3.78-3.54-5.91c-0.38-0.94-0.7-1.91-0.96-2.89
		c-0.26-0.98-0.37-1.54-0.51-2.45c-0.06-0.4-0.14-1.41-0.14-1.48C17.75,29.27,32.22,14.8,50,14.8s32.25,14.47,32.25,32.25
		S67.78,79.3,50,79.3c-0.63,0-1.15,0.52-1.15,1.15S49.37,81.6,50,81.6c9.23,0,17.9-3.59,24.43-10.12
		c6.53-6.53,10.12-15.2,10.12-24.43S80.96,29.14,74.43,22.62z"/>
	<circle class="st4" cx="44.62" cy="80.54" r="1.36"/>
</g>
</svg>
