<?xml version="1.0" encoding="utf-8"?>
<!-- Generator: Adobe Illustrator 27.1.1, SVG Export Plug-In . SVG Version: 6.00 Build 0)  -->
<svg version="1.1" id="Camada_1" xmlns="http://www.w3.org/2000/svg" xmlns:xlink="http://www.w3.org/1999/xlink" x="0px" y="0px"
	 viewBox="0 0 100 100" style="enable-background:new 0 0 100 100;" xml:space="preserve">
<style type="text/css">
	.st0{fill-rule:evenodd;clip-rule:evenodd;fill:#FFFFFF;}
</style>
<g>
	<path class="st0" d="M64.02,14.72c0-2.6,0.77-6.03,1.43-8.06c0.74-2.36,2-4.55,2.8-6.66c-1.18,0.52-4.2,5.26-4.88,6.44
		c-1.89,3.32-2.63,7.35-2.63,11.76c0,5.7,4.69,36.19,4.14,37.15c-0.13-0.06-0.38-0.45-0.69-1c-2-3.61-4.19-7.11-6.6-10.45
		l-0.44-0.62c-2.59-3.73-8.25-5.57-12.72-2.8c-1.12,0.71-1.89,1.4-2.66,2.41c2.14-1.12,5.9,0.82,7.32,1.84
		c4.96,3.51,3.81,7.27-1.26,9.71c-3.48,1.67-8.14,1.95-11.35-0.6c-4.8-3.81-1.12-12.5,0.63-17.03c1.4-3.98,6.39-17.99,2.33-20.43
		c-0.03,6.14-1.48,9.46-3.95,14.83c-1.95,4.22-5.07,9.13-7.51,13.13c-3.48,6.2-7.87,13.63-7.87,20.84c-0.03,3.78,1.12,7.1,3.02,10.2
		c2.03,3.29,4.83,6,8.06,8.36c0.6,0.44,1.26,0.96,1.92,1.37c2.14,1.37,10.58,6.5,12.72,6.77c-3.51-3.1-5.98-4.85-9.35-8.39
		c-3.18-3.37-6.88-10.15-4.22-14.53c0.85-1.43,1.84-2.41,3.21-3.24c3.37-2.03,6.64-2.3,9.9,0.05c4.39,3.13,1.95,4.28,7.13-0.71
		c3.29-3.15,7.81-4.09,11.63-0.85c1.37,1.15,2.47,2.06,3.32,3.78c1.65,3.4,1.32,8.28,0.55,12.28c-1.07,5.46-3.43,10.39-5.92,15.36
		c-0.55,0.96-2.22,3.51-2.47,4.33c7.57-3.65,14.18-16.42,17.8-24.16c0.69-1.4,1.26-3.67,1.75-5.21c2.58-10.15-1.7-20.35-6.44-29.04
		c-1.04-2.14-2.28-4.36-3.24-6.53C66.19,27.72,64.05,23.31,64.02,14.72L64.02,14.72z"/>
</g>
</svg>
