<?xml version="1.0" encoding="utf-8"?>
<!-- Generator: Adobe Illustrator 27.1.1, SVG Export Plug-In . SVG Version: 6.00 Build 0)  -->
<svg version="1.1" id="Camada_1" xmlns="http://www.w3.org/2000/svg" xmlns:xlink="http://www.w3.org/1999/xlink" x="0px" y="0px"
	 viewBox="0 0 500 176.03" style="enable-background:new 0 0 500 176.03;" xml:space="preserve">
<style type="text/css">
	.st0{fill-rule:evenodd;clip-rule:evenodd;fill:#FFFFFF;}
	.st1{fill:#FFFFFF;}
</style>
<g>
	<path class="st0" d="M77.33,25.92c0-4.59,1.35-10.62,2.51-14.19c1.3-4.15,3.52-8.01,4.92-11.73c-2.08,0.92-7.38,9.27-8.59,11.34
		c-3.33,5.84-4.63,12.94-4.63,20.71c0,10.04,8.25,63.71,7.29,65.4c-0.23-0.11-0.68-0.8-1.21-1.75c-3.53-6.35-7.37-12.51-11.62-18.4
		l-0.78-1.09c-4.55-6.57-14.53-9.8-22.4-4.92c-1.98,1.25-3.33,2.46-4.68,4.25c3.76-1.98,10.38,1.45,12.89,3.23
		c8.74,6.18,6.71,12.79-2.22,17.09c-6.13,2.94-14.34,3.43-19.98-1.06c-8.45-6.71-1.98-22.01,1.11-29.97
		c2.46-7,11.25-31.66,4.1-35.96c-0.05,10.81-2.61,16.65-6.95,26.11c-3.43,7.43-8.93,16.07-13.23,23.12C7.72,89.01,0,102.09,0,114.78
		c-0.05,6.66,1.98,12.5,5.31,17.96c3.57,5.79,8.5,10.57,14.19,14.72c1.06,0.77,2.22,1.69,3.38,2.41
		c3.76,2.41,18.63,11.44,22.4,11.92c-6.18-5.45-10.52-8.54-16.46-14.77c-5.6-5.94-12.12-17.86-7.43-25.58
		c1.5-2.51,3.23-4.25,5.65-5.7c5.94-3.57,11.68-4.05,17.42,0.1c7.72,5.5,3.43,7.53,12.55-1.25c5.79-5.55,13.76-7.19,20.47-1.5
		c2.41,2.03,4.34,3.62,5.84,6.66c2.9,5.99,2.32,14.58,0.97,21.62c-1.88,9.61-6.03,18.29-10.43,27.03c-0.97,1.69-3.91,6.18-4.34,7.63
		c13.32-6.42,24.95-28.91,31.33-42.52c1.21-2.46,2.22-6.47,3.09-9.17c4.54-17.86-2.99-35.81-11.34-51.12
		c-1.83-3.76-4.01-7.67-5.7-11.49C81.14,48.8,77.37,41.03,77.33,25.92L77.33,25.92z"/>
	<path class="st1" d="M165.3,85.23c0-7.92-7.31-15.62-23.19-15.62h-22.19v50.63h15.97v-16.63C154.8,102.3,165.3,97.79,165.3,85.23
		L165.3,85.23z M198.6,120.94c16.85,0,28.97-10.5,28.97-27.13c0-13.87-9.45-24.9-27.48-24.9c-16.72,0-28.88,9.85-28.88,26.91
		C171.21,109.26,180.57,120.94,198.6,120.94L198.6,120.94z M199.79,116.96c-8.58,0-11.82-10.11-11.82-22.98
		c0-11.25,2.8-21.05,11.03-21.05c8.49,0,11.73,9.37,11.73,22.76C210.73,106.37,208.01,116.96,199.79,116.96L199.79,116.96z
		 M476.94,69.61h-15.93v50.63H500v-4.07h-23.06V69.61z M437.07,94.07L423.9,69.61h-18.03l17.68,30.46v20.17h15.49V99.72l16.06-30.11
		h-6.39L437.07,94.07z M409.54,120.24l-16.76-22.45c9.23-3.41,12.21-7.48,12.21-13.48c0-8.1-8.67-14.7-21.97-14.7h-23.85v50.63
		h15.97v-18.12c2.14-0.35,4.11-0.79,6.04-1.18l12.12,19.3H409.54z M389.15,84.4c0,10.37-4.2,12.12-14,14.18V73.11
		C385.38,73.11,389.15,77.53,389.15,84.4L389.15,84.4z M335.58,120.99c7.4,0,12.43-1.93,16.59-4.6l-1.36-2.93
		c-3.37,1.75-8.14,3.33-13.57,3.33c-12.3,0-15.75-11.25-15.75-22.54c0-12.12,4.64-21.31,13.13-21.31c5.47,0,6.3,3.81,6.3,9.54
		c0,2.14,0.66,5.69,5.6,5.69c3.33,0,6.35-1.62,6.35-6.48c0-9.45-11.12-12.78-19.43-12.78c-14.92,0-28.71,10.11-28.71,27.31
		C304.73,111.75,318.38,120.99,335.58,120.99L335.58,120.99z M296.59,120.24V69.61h-15.97v50.63H296.59z M251.64,69.61h-15.93v50.63
		h38.99v-4.07h-23.06V69.61z M135.89,72.93c8.93,0,13.83,3.72,13.83,12.3c0,9.8-4.29,13.22-13.83,14.7V72.93z"/>
</g>
</svg>
